<svg id="Layer_1" data-name="Layer 1" xmlns="http://www.w3.org/2000/svg" viewBox="0 0 20 20"><defs><style>.cls-1{fill:#22172b;}.cls-2{fill:#ffcb05;}.cls-3{fill:#faa61a;}.cls-4,.cls-5{fill:none;}.cls-4{stroke:#22172b;stroke-miterlimit:10;}.cls-5{stroke:#fff;stroke-linecap:round;stroke-linejoin:round;stroke-width:1.02px;}</style></defs><title>delete</title><path class="cls-1" d="M11.57,3.19a.68.68,0,0,1,.68.69V8.44a.67.67,0,0,1-.68.68H8.43a.67.67,0,0,1-.68-.68V3.88a.68.68,0,0,1,.68-.69h3.14m0-1H8.43A1.72,1.72,0,0,0,6.72,3.88V8.44a1.72,1.72,0,0,0,1.71,1.71h3.14a1.72,1.72,0,0,0,1.71-1.71V3.88a1.72,1.72,0,0,0-1.71-1.71Z"/><path class="cls-2" d="M6.88,17.32A1.87,1.87,0,0,1,5,15.45V5.34a.51.51,0,0,1,.51-.51h9a.51.51,0,0,1,.51.51V15.45a1.87,1.87,0,0,1-1.87,1.87Z"/><path class="cls-1" d="M14.48,5.34V15.45a1.36,1.36,0,0,1-1.36,1.36H6.88a1.36,1.36,0,0,1-1.36-1.36V5.34h9m0-1h-9a1,1,0,0,0-1,1V15.45a2.39,2.39,0,0,0,2.38,2.38h6.24a2.39,2.39,0,0,0,2.38-2.38V5.34a1,1,0,0,0-1-1Z"/><path class="cls-3" d="M10,5.34H5.52V15.45a1.36,1.36,0,0,0,1.36,1.36H10Z"/><line class="cls-4" x1="3.88" y1="4.75" x2="16.12" y2="4.75"/><line class="cls-4" x1="10" y1="7.41" x2="10" y2="14.74"/><line class="cls-5" x1="12.48" y1="7.41" x2="12.48" y2="14.74"/><line class="cls-4" x1="7.52" y1="7.41" x2="7.52" y2="14.74"/></svg>