<svg id="Layer_1" data-name="Layer 1" xmlns="http://www.w3.org/2000/svg" viewBox="0 0 20 20"><defs><style>.cls-1{fill:#ffcb05;}.cls-2{fill:#22172b;}.cls-3{fill:#faa61a;}.cls-4,.cls-5{fill:none;}.cls-4{stroke:#22172b;stroke-miterlimit:10;}.cls-5{stroke:#fff;stroke-linecap:round;stroke-linejoin:round;stroke-width:1.02px;}</style></defs><title>edit</title><path class="cls-1" d="M4.31,17.15a1.46,1.46,0,0,1-1.12-.53,1.44,1.44,0,0,1-.29-1.2l.6-2.94A2.91,2.91,0,0,1,4.29,11l7.56-7.57a2,2,0,0,1,1.45-.6,2,2,0,0,1,1.44.6l1.79,1.79a2,2,0,0,1,.6,1.44,2,2,0,0,1-.6,1.45L9,15.69a3,3,0,0,1-1.46.8l-2.89.62a1.15,1.15,0,0,1-.31,0Z"/><path class="cls-2" d="M13.3,3.36a1.52,1.52,0,0,1,1.08.45L16.17,5.6a1.53,1.53,0,0,1,0,2.17L8.6,15.33A2.37,2.37,0,0,1,7.4,16l-2.89.62-.2,0a.93.93,0,0,1-.91-1.12L4,12.58a2.4,2.4,0,0,1,.65-1.2l7.56-7.57a1.55,1.55,0,0,1,1.09-.45m0-1a2.56,2.56,0,0,0-1.81.75L3.93,10.65A3.31,3.31,0,0,0,3,12.37l-.6,3a2,2,0,0,0,1.91,2.34,1.84,1.84,0,0,0,.41-.05L7.62,17a3.51,3.51,0,0,0,1.71-.93l7.56-7.57a2.5,2.5,0,0,0,.75-1.81,2.54,2.54,0,0,0-.75-1.8L15.11,3.09a2.58,2.58,0,0,0-1.81-.75Z"/><rect class="cls-3" x="6.63" y="9.96" width="8.92" height="2.47" transform="translate(-4.67 11.12) rotate(-45)"/><line class="cls-4" x1="8.62" y1="15.5" x2="4.4" y2="11.28"/><line class="cls-4" x1="15.37" y1="8.75" x2="11.15" y2="4.53"/><path class="cls-2" d="M4.51,16.61l1.3-.28L3.67,14.19,3.4,15.52A.93.93,0,0,0,4.51,16.61Z"/><line class="cls-4" x1="6.77" y1="13.21" x2="13.16" y2="6.82"/><line class="cls-5" x1="8.09" y1="9.4" x2="10.73" y2="6.79"/><path class="cls-5" d="M13.1,4.5a.48.48,0,0,1,.56,0"/></svg>