<svg id="Layer_1" data-name="Layer 1" xmlns="http://www.w3.org/2000/svg" viewBox="0 0 49.78 49.78"><defs><style>.cls-1{fill:#f8404a;}</style></defs><title>empty-like</title><path class="cls-1" d="M25.08,44.8a2.22,2.22,0,0,1-1.33-.45c-4-3-17.27-13.32-20.28-19C-.09,18.55,2,9.88,8.19,6a11.91,11.91,0,0,1,6.4-1.89c3.76,0,6.88.61,9.87,3.6l.16.19.46.63.62-.82c3.34-3.33,6.45-3.6,9.88-3.6A11.94,11.94,0,0,1,42,6c6.16,3.9,8.28,12.57,4.72,19.33-3,5.72-16.29,16-20.28,19A2.23,2.23,0,0,1,25.08,44.8ZM14.59,7.27a8.8,8.8,0,0,0-4.7,1.4c-4.79,3-6.41,9.83-3.6,15.15C8,27.12,15.37,34,25.08,41.37,34.8,34,42.14,27.12,43.88,23.82c2.8-5.32,1.19-12.12-3.6-15.15a8.83,8.83,0,0,0-4.7-1.4c-3.38,0-5.29.38-7.54,2.59l-3,4-2.95-4C19.92,7.7,17.69,7.27,14.59,7.27Z"/></svg>