<svg id="ee2249e7-5b5e-4184-be1b-1bbe0b701e79" data-name="Layer 1" xmlns="http://www.w3.org/2000/svg" viewBox="0 0 20 20"><defs><style>.fbf03f56-c03f-4e61-b3a7-ee94e3c00178,.fd60e6bb-a34a-4af9-b998-73cc7394b41f{fill:#faa61a;}.af2c3091-aa35-4f74-a915-c2c58fe65fcc,.be378578-db01-42ca-8217-c111876cddb4,.fbf03f56-c03f-4e61-b3a7-ee94e3c00178{stroke:#42210b;}.af2c3091-aa35-4f74-a915-c2c58fe65fcc,.b8da09c1-5793-4ef6-81d0-33f890527827,.be378578-db01-42ca-8217-c111876cddb4,.fbf03f56-c03f-4e61-b3a7-ee94e3c00178{stroke-linejoin:round;stroke-width:1.02px;}.af2c3091-aa35-4f74-a915-c2c58fe65fcc{fill:#ffcb05;}.b8da09c1-5793-4ef6-81d0-33f890527827,.be378578-db01-42ca-8217-c111876cddb4{fill:none;}.b8da09c1-5793-4ef6-81d0-33f890527827{stroke:#fff;stroke-linecap:round;}</style></defs><title>search</title><path class="fbf03f56-c03f-4e61-b3a7-ee94e3c00178" d="M11.1,8.38l1.31,1.3h0l.91.92.53.52h0l3.28,3.28A1.81,1.81,0,0,1,14.57,17l-3-3-3-3A1.81,1.81,0,0,1,11.1,8.38Z"/><path class="af2c3091-aa35-4f74-a915-c2c58fe65fcc" d="M14.21,8.44A5.94,5.94,0,1,1,8.27,2.5,5.93,5.93,0,0,1,14.21,8.44Z"/><path class="fd60e6bb-a34a-4af9-b998-73cc7394b41f" d="M8.34,2.5V14.37a5.94,5.94,0,0,0,0-11.87Z"/><path class="be378578-db01-42ca-8217-c111876cddb4" d="M14.21,8.44A5.94,5.94,0,1,1,8.27,2.5,5.93,5.93,0,0,1,14.21,8.44Z"/><path class="af2c3091-aa35-4f74-a915-c2c58fe65fcc" d="M12.2,8.44A3.93,3.93,0,1,1,8.27,4.51,3.92,3.92,0,0,1,12.2,8.44Z"/><path class="b8da09c1-5793-4ef6-81d0-33f890527827" d="M8.27,6.51A1.92,1.92,0,0,1,10.2,8.44"/></svg>