<svg id="f602cbe5-f09f-4fa0-bd44-266e1f867c42" data-name="Layer 1" xmlns="http://www.w3.org/2000/svg" viewBox="0 0 20 20"><defs><style>.b880ece2-b01a-4286-805d-3b3b33f5d551,.f76f409f-b82c-4c7a-8800-4366ee3a4205{fill:#faa61a;}.a5a2a726-1a94-4f27-b0b9-4a3a251ebeb3,.f76f409f-b82c-4c7a-8800-4366ee3a4205,.ff4d6fcb-ba54-430f-ae07-df96d6fba408{stroke:#42210b;}.a5a2a726-1a94-4f27-b0b9-4a3a251ebeb3,.b019e4c0-ac7c-4906-a02c-c48374ca4309,.f76f409f-b82c-4c7a-8800-4366ee3a4205,.ff4d6fcb-ba54-430f-ae07-df96d6fba408{stroke-linejoin:round;stroke-width:1.02px;}.ff4d6fcb-ba54-430f-ae07-df96d6fba408{fill:#ffcb05;}.a5a2a726-1a94-4f27-b0b9-4a3a251ebeb3,.b019e4c0-ac7c-4906-a02c-c48374ca4309{fill:none;}.b019e4c0-ac7c-4906-a02c-c48374ca4309{stroke:#fff;stroke-linecap:round;}</style></defs><title>search</title><path class="f76f409f-b82c-4c7a-8800-4366ee3a4205" d="M11.1,8.38l1.31,1.3h0l.91.92.53.52h0l3.28,3.28A1.81,1.81,0,0,1,14.57,17l-3-3-3-3A1.81,1.81,0,0,1,11.1,8.38Z"/><path class="ff4d6fcb-ba54-430f-ae07-df96d6fba408" d="M14.21,8.44A5.94,5.94,0,1,1,8.27,2.5,5.93,5.93,0,0,1,14.21,8.44Z"/><path class="b880ece2-b01a-4286-805d-3b3b33f5d551" d="M8.34,2.5V14.37a5.94,5.94,0,0,0,0-11.87Z"/><path class="a5a2a726-1a94-4f27-b0b9-4a3a251ebeb3" d="M14.21,8.44A5.94,5.94,0,1,1,8.27,2.5,5.93,5.93,0,0,1,14.21,8.44Z"/><path class="ff4d6fcb-ba54-430f-ae07-df96d6fba408" d="M12.2,8.44A3.93,3.93,0,1,1,8.27,4.51,3.92,3.92,0,0,1,12.2,8.44Z"/><path class="b019e4c0-ac7c-4906-a02c-c48374ca4309" d="M8.27,6.51A1.92,1.92,0,0,1,10.2,8.44"/></svg>
